{
    "asset" : {
        "generator" : "Khronos glTF Blender I/O v0.9.7",
        "version" : "2.0"
    },
    "scene" : 0,
    "scenes" : [
        {
            "name" : "Pillow",
            "nodes" : [
                0,
                1
            ]
        }
    ],
    "nodes" : [
        {
            "name" : "CameraPreset"
        },
        {
            "mesh" : 0,
            "name" : "pollow_poly",
            "rotation" : [
                0.7071068286895752,
                0,
                0,
                0.7071068286895752
            ],
            "translation" : [
                0,
                -0.017500000074505806,
                0
            ]
        }
    ],
    "materials" : [
        {
            "name" : "Physical",
            "pbrMetallicRoughness" : {}
        }
    ],
    "meshes" : [
        {
            "name" : "pollow_poly",
            "primitives" : [
                {
                    "attributes" : {
                        "POSITION" : 0,
                        "NORMAL" : 1,
                        "TEXCOORD_0" : 2
                    },
                    "indices" : 3,
                    "material" : 0
                }
            ]
        }
    ],
    "accessors" : [
        {
            "bufferView" : 0,
            "componentType" : 5126,
            "count" : 19372,
            "max" : [
                0.906715989112854,
                1.1410200595855713,
                0.5218999981880188
            ],
            "min" : [
                -0.8916879892349243,
                -1.1407699584960938,
                -0.5200579762458801
            ],
            "type" : "VEC3"
        },
        {
            "bufferView" : 1,
            "componentType" : 5126,
            "count" : 19372,
            "type" : "VEC3"
        },
        {
            "bufferView" : 2,
            "componentType" : 5126,
            "count" : 19372,
            "type" : "VEC2"
        },
        {
            "bufferView" : 3,
            "componentType" : 5123,
            "count" : 111936,
            "type" : "SCALAR"
        }
    ],
    "bufferViews" : [
        {
            "buffer" : 0,
            "byteLength" : 232464,
            "byteOffset" : 0
        },
        {
            "buffer" : 0,
            "byteLength" : 232464,
            "byteOffset" : 232464
        },
        {
            "buffer" : 0,
            "byteLength" : 154976,
            "byteOffset" : 464928
        },
        {
            "buffer" : 0,
            "byteLength" : 223872,
            "byteOffset" : 619904
        }
    ],
    "buffers" : [
        {
            "byteLength" : 843776,
            "uri" : "data:application/octet-stream;base64,"
        }
    ]
}
